<?xml version="1.0" encoding="utf-8"?>
<!DOCTYPE svg PUBLIC "-//W3C//DTD SVG 20010904//EN" "http://www.w3.org/TR/2001/REC-SVG-20010904/DTD/svg10.dtd">
<svg version="1.0" xmlns="http://www.w3.org/2000/svg" width="282pt" height="185pt" viewBox="0 0 282 185" preserveAspectRatio="xMidYMid meet">
<g fill="#FEFDFDFE">
<path d="M 118.73 181.40 C 118.41 181.07 119.63 176.46 121.45 171.15 C 123.27 165.84 126.35 156.55 128.29 150.50 C 130.23 144.45 136.85 123.97 142.99 105.00 C 159.92 52.69 162.80 43.72 163.54 41.00 C 165.57 33.65 174.12 28.22 182.03 29.28 C 184.26 29.58 188.98 31.64 192.59 33.91 C 196.18 36.16 199.43 38.00 199.82 38.00 C 200.21 38.00 202.87 39.57 205.72 41.50 C 208.58 43.42 211.14 45.00 211.41 45.00 C 211.68 45.00 217.38 48.19 224.08 52.09 C 230.78 55.99 237.93 60.15 239.98 61.34 C 242.02 62.53 250.25 67.28 258.27 71.90 C 275.78 81.99 277.46 83.84 277.49 93.00 C 277.50 101.50 275.33 104.56 265.21 110.29 C 260.97 112.69 248.37 119.91 237.21 126.33 C 226.05 132.75 216.49 138.00 215.96 138.00 C 215.43 138.00 215.00 138.39 215.00 138.87 C 215.00 139.35 212.27 140.92 208.93 142.37 C 201.95 145.40 195.55 145.75 188.84 143.46 C 184.02 141.82 176.34 134.87 177.42 133.13 C 177.78 132.55 181.54 130.11 185.78 127.70 C 190.03 125.29 197.55 120.95 202.50 118.06 C 207.45 115.17 219.01 108.48 228.18 103.20 C 237.36 97.91 244.65 93.25 244.40 92.83 C 244.14 92.41 239.56 89.54 234.21 86.44 C 228.87 83.34 222.03 79.32 219.00 77.51 C 215.97 75.70 211.70 73.20 209.50 71.97 C 207.30 70.73 204.15 68.88 202.50 67.87 C 200.85 66.85 198.82 65.70 198.00 65.32 C 197.18 64.93 193.95 63.13 190.83 61.31 C 187.71 59.49 184.93 58.00 184.64 58.00 C 184.35 58.00 178.42 75.44 171.48 96.75 C 164.53 118.06 156.39 143.00 153.38 152.16 C 150.13 162.06 146.75 170.43 145.05 172.78 C 140.97 178.41 133.34 182.00 125.47 182.00 C 122.09 182.00 119.06 181.73 118.73 181.40Z"/></g>
<g fill="#FEFDFDFE">
<path d="M 96.50 156.78 C 94.85 156.19 92.38 154.94 91.00 153.99 C 89.62 153.05 85.12 150.36 81.00 148.01 C 67.86 140.55 66.82 139.95 49.00 129.58 C 39.38 123.97 26.94 116.83 21.36 113.70 C 11.01 107.89 5.53 102.96 4.39 98.42 C 2.61 91.31 6.88 81.14 12.56 78.98 C 13.86 78.48 16.63 77.00 18.71 75.69 C 20.80 74.38 25.65 71.48 29.50 69.25 C 78.57 40.82 76.18 42.00 84.83 42.00 C 91.06 42.00 97.17 44.49 101.98 48.98 C 105.93 52.67 105.79 54.13 101.27 56.52 C 97.87 58.32 90.10 62.75 75.00 71.50 C 71.97 73.25 62.19 78.88 53.25 84.00 C 44.31 89.13 37.00 93.58 37.01 93.91 C 37.01 94.23 38.47 95.34 40.26 96.38 C 42.04 97.41 45.08 99.17 47.00 100.29 C 48.92 101.41 55.00 104.88 60.50 108.00 C 66.00 111.12 74.55 116.05 79.50 118.95 C 88.63 124.30 97.08 129.00 97.57 129.00 C 97.90 129.00 104.30 109.57 119.50 62.50 C 125.89 42.70 132.07 24.08 133.23 21.12 C 135.77 14.65 141.43 8.76 147.28 6.53 C 151.93 4.76 163.61 4.73 163.36 6.50 C 163.21 7.55 138.35 84.05 137.04 87.50 C 136.06 90.07 125.75 122.23 121.35 136.44 C 117.06 150.30 115.49 152.98 110.02 155.75 C 105.24 158.17 101.27 158.47 96.50 156.78Z"/></g>
</svg>
